<?xml version="1.0" standalone="no"?><!DOCTYPE svg PUBLIC "-//W3C//DTD SVG 1.1//EN" "http://www.w3.org/Graphics/SVG/1.1/DTD/svg11.dtd"><svg t="1619241826871" class="icon" viewBox="0 0 1024 1024" version="1.1" xmlns="http://www.w3.org/2000/svg" p-id="4948" xmlns:xlink="http://www.w3.org/1999/xlink" width="200" height="200"><defs><style type="text/css"></style></defs><path d="M972.533333 341.333333L514.506667 96a5.333333 5.333333 0 0 0-5.013334 0L51.466667 341.333333a5.333333 5.333333 0 0 0 0 9.386667l458.026666 245.333333a5.333333 5.333333 0 0 0 5.013334 0l458.026666-245.333333a5.333333 5.333333 0 0 0 0-9.386667zM913.6 685.493333a37.333333 37.333333 0 0 0-37.333333 37.333334c0 16.533333 23.946667 43.52 33.493333 53.6a5.333333 5.333333 0 0 0 7.68 0c9.546667-10.08 33.493333-37.333333 33.493333-53.6a37.333333 37.333333 0 0 0-37.333333-37.333334zM881.6 667.2h64a5.333333 5.333333 0 0 0 5.333333-5.333333V413.546667a5.333333 5.333333 0 0 0-7.84-4.693334l-64 34.346667a5.333333 5.333333 0 0 0-2.826666 4.693333v213.973334a5.333333 5.333333 0 0 0 5.333333 5.333333z" p-id="4949" fill="#2c2c2c"></path><path d="M175.2 468.373333l0.853333 277.333334a5.333333 5.333333 0 0 0 2.826667 4.693333l330.133333 177.6a5.333333 5.333333 0 0 0 5.333334 0l330.666666-177.653333a5.333333 5.333333 0 0 0 2.826667-4.693334V469.013333a5.333333 5.333333 0 0 0-7.84-4.746666l-325.333333 174.72a5.333333 5.333333 0 0 1-5.333334 0L183.04 463.626667a5.333333 5.333333 0 0 0-7.84 4.746666z" p-id="4950" fill="#2c2c2c"></path></svg>