<?xml version="1.0" standalone="no"?><!DOCTYPE svg PUBLIC "-//W3C//DTD SVG 1.1//EN" "http://www.w3.org/Graphics/SVG/1.1/DTD/svg11.dtd"><svg t="1619241790790" class="icon" viewBox="0 0 1024 1024" version="1.1" xmlns="http://www.w3.org/2000/svg" p-id="3635" xmlns:xlink="http://www.w3.org/1999/xlink" width="200" height="200"><defs><style type="text/css"></style></defs><path d="M874.048 149.952C970.752 246.656 1024 375.232 1024 512 1024 648.768 970.752 777.344 874.048 874.048 777.344 970.752 648.768 1024 512 1024 375.232 1024 246.656 970.752 149.952 874.048 53.248 777.344 0 648.768 0 512 0 375.232 53.248 246.656 149.952 149.952 246.656 53.248 375.232 0 512 0 648.768 0 777.344 53.248 874.048 149.952ZM828.768 828.8C891.84 765.728 933.76 687.168 951.072 601.728 937.568 621.568 924.704 628.928 916.704 584.512 908.48 512.128 842.016 558.368 800.192 532.672 756.192 562.304 657.28 475.008 674.112 573.472 700.032 617.888 814.112 514.048 757.248 608.032 720.96 673.632 624.608 818.944 637.152 894.272 638.72 1004.032 524.992 917.152 485.824 880.768 459.456 807.84 476.832 680.384 407.936 644.672 333.12 641.44 268.928 634.624 239.936 551.008 222.496 491.168 258.496 402.112 322.624 388.352 416.448 329.408 449.984 457.408 538.016 459.808 565.344 431.2 639.808 422.112 645.984 390.048 588.256 379.84 719.264 341.472 640.48 319.648 596.992 324.768 568.992 364.736 592.096 398.624 507.872 418.272 505.152 276.704 424.192 321.376 422.144 391.968 291.968 344.256 379.136 329.92 409.12 316.864 330.304 278.912 372.864 285.824 393.792 284.672 464.192 260 445.152 243.424 484.352 219.072 517.312 301.696 555.68 241.536 583.392 195.264 544.064 186.72 509.344 210.176 489.76 188.256 543.904 140.896 591.68 120.448 607.584 113.6 622.784 109.888 634.4 110.944 658.464 138.752 702.976 143.552 705.28 107.616 645.696 79.072 580 64 512 64 414.368 64 321.536 95.04 244.704 152.384 265.344 161.856 277.056 173.632 257.184 188.672 241.728 234.752 179.008 296.576 123.936 287.808 95.36 337.12 76.544 391.424 68.48 448.352 114.592 463.584 125.216 493.792 115.328 503.872 91.84 524.384 77.376 553.408 69.952 585.216 84.96 677.056 128.128 761.696 195.232 828.8 279.84 913.408 392.32 960 512 960 631.648 960 744.16 913.408 828.768 828.8Z" p-id="3636" fill="#2c2c2c"></path></svg>