<?xml version="1.0" standalone="no"?><!DOCTYPE svg PUBLIC "-//W3C//DTD SVG 1.1//EN" "http://www.w3.org/Graphics/SVG/1.1/DTD/svg11.dtd"><svg t="1619241812609" class="icon" viewBox="0 0 1024 1024" version="1.1" xmlns="http://www.w3.org/2000/svg" p-id="4550" xmlns:xlink="http://www.w3.org/1999/xlink" width="200" height="200"><defs><style type="text/css"></style></defs><path d="M768 768a42.666667 42.666667 0 0 1-42.666667 42.666667h-85.333333v-298.666667h128v256z m-298.666667 42.666667h85.333334v-298.666667h-85.333334v298.666667z m-170.666666 0a42.666667 42.666667 0 0 1-42.666667-42.666667v-256h128v298.666667H298.666667zM213.333333 384a42.666667 42.666667 0 0 1 42.666667-42.666667h128v85.333334H213.333333V384z m170.666667-170.666667a42.666667 42.666667 0 0 1 85.333333 0v42.666667h-42.666666a42.666667 42.666667 0 0 1-42.666667-42.666667z m213.333333-42.666666a42.666667 42.666667 0 0 1 0 85.333333h-42.666666V213.333333a42.666667 42.666667 0 0 1 42.666666-42.666666z m-128 170.666666h85.333334v85.333334h-85.333334V341.333333z m341.333334 42.666667v42.666667h-170.666667V341.333333h128a42.666667 42.666667 0 0 1 42.666667 42.666667z m-42.666667-128h-50.56c4.821333-13.397333 7.893333-27.605333 7.893333-42.666667 0-70.570667-57.429333-128-128-128a127.146667 127.146667 0 0 0-85.333333 33.28A127.146667 127.146667 0 0 0 426.666667 85.333333C356.096 85.333333 298.666667 142.762667 298.666667 213.333333c0 15.061333 3.072 29.269333 7.893333 42.666667H256C185.429333 256 128 313.429333 128 384v85.333333a42.666667 42.666667 0 0 0 42.666667 42.666667v256c0 70.570667 57.429333 128 128 128h426.666666c70.570667 0 128-57.429333 128-128v-256a42.666667 42.666667 0 0 0 42.666667-42.666667V384c0-70.570667-57.429333-128-128-128z" fill="#000000" p-id="4551"></path></svg>